<svg version="1.1" id="Layer_1" xmlns="http://www.w3.org/2000/svg" xmlns:xlink="http://www.w3.org/1999/xlink" x="0px" y="0px"
	 width="100%" viewBox="0 0 576 952" enable-background="new 0 0 576 952" xml:space="preserve">
<path fill="#FFFFFF" opacity="1.000000" stroke="none" 
	d="
M95.000000,1.000002 
	C255.597549,1.000000 416.195099,1.000000 577.000000,1.000000 
	C577.000000,169.691513 577.000000,338.383118 576.595703,507.399475 
	C574.611023,507.482849 573.031189,507.036011 571.450073,507.031494 
	C553.955261,506.981445 536.460205,507.000000 518.965271,507.000000 
	C498.488770,507.000000 478.012268,507.000000 457.673065,507.000000 
	C455.083344,521.229980 453.130890,535.338440 449.871307,549.138000 
	C443.815979,574.773560 431.076721,597.168701 413.640106,616.681946 
	C397.184143,635.097778 377.613739,649.410461 354.669647,659.171814 
	C338.748627,665.945312 322.264313,670.590088 305.214325,671.689453 
	C291.650024,672.563965 277.864929,671.128723 264.254883,669.879700 
	C249.386200,668.515015 235.369003,663.562012 221.850357,657.357666 
	C200.034256,647.345398 180.812439,633.864075 164.928375,615.606140 
	C155.601501,604.885376 147.494843,593.413208 141.065811,580.843384 
	C131.259491,561.670288 125.419434,541.115784 124.261902,519.689636 
	C123.536781,506.267578 124.279594,492.547791 126.277565,479.249146 
	C129.155182,460.095459 135.698715,441.937653 145.439484,424.987213 
	C156.810226,405.200317 171.206879,388.072235 189.376083,374.307220 
	C206.077850,361.653992 224.754944,352.811279 244.768997,346.543365 
	C257.483459,342.561493 268.728424,343.610901 278.145325,353.696686 
	C283.638367,359.579865 288.632507,365.940552 294.268768,371.675995 
	C309.549042,387.225006 325.052246,402.554932 340.628296,418.133026 
	C342.399109,416.623444 344.105804,415.357147 345.593903,413.871857 
	C370.948669,388.565796 396.276855,363.233124 421.609650,337.905029 
	C426.512573,333.002991 426.512421,332.998260 421.615814,328.101624 
	C313.931427,220.416931 206.245636,112.733612 98.571739,5.038422 
	C97.303497,3.769926 96.187210,2.349506 95.000000,1.000002 
z"/>
<path fill="#0C1618" opacity="1.000000" stroke="none" 
	d="
M94.625000,1.000002 
	C96.187210,2.349506 97.303497,3.769926 98.571739,5.038422 
	C206.245636,112.733612 313.931427,220.416931 421.615814,328.101624 
	C426.512421,332.998260 426.512573,333.002991 421.609650,337.905029 
	C396.276855,363.233124 370.948669,388.565796 345.593903,413.871857 
	C344.105804,415.357147 342.399109,416.623444 340.628296,418.133026 
	C325.052246,402.554932 309.549042,387.225006 294.268768,371.675995 
	C288.632507,365.940552 283.638367,359.579865 278.145325,353.696686 
	C268.728424,343.610901 257.483459,342.561493 244.768997,346.543365 
	C224.754944,352.811279 206.077850,361.653992 189.376083,374.307220 
	C171.206879,388.072235 156.810226,405.200317 145.439484,424.987213 
	C135.698715,441.937653 129.155182,460.095459 126.277565,479.249146 
	C124.279594,492.547791 123.536781,506.267578 124.261902,519.689636 
	C125.419434,541.115784 131.259491,561.670288 141.065811,580.843384 
	C147.494843,593.413208 155.601501,604.885376 164.928375,615.606140 
	C180.812439,633.864075 200.034256,647.345398 221.850357,657.357666 
	C235.369003,663.562012 249.386200,668.515015 264.254883,669.879700 
	C277.864929,671.128723 291.650024,672.563965 305.214325,671.689453 
	C322.264313,670.590088 338.748627,665.945312 354.669647,659.171814 
	C377.613739,649.410461 397.184143,635.097778 413.640106,616.681946 
	C431.076721,597.168701 443.815979,574.773560 449.871307,549.138000 
	C453.130890,535.338440 455.083344,521.229980 457.673065,507.000000 
	C478.012268,507.000000 498.488770,507.000000 518.965271,507.000000 
	C536.460205,507.000000 553.955261,506.981445 571.450073,507.031494 
	C573.031189,507.036011 574.611023,507.482849 576.595703,507.862122 
	C577.000000,519.687561 577.000000,531.375122 576.634827,543.648193 
	C576.513062,545.822449 576.756531,547.411194 577.000000,549.000000 
	C577.000000,549.444458 577.000000,549.888916 576.617126,550.785889 
	C574.825745,557.657166 573.332031,564.058472 572.023132,570.497437 
	C565.595947,602.114929 552.958435,631.257141 535.901062,658.419800 
	C521.264038,681.728149 504.397064,703.393250 483.177460,721.223572 
	C472.596161,730.114807 461.859833,738.886963 450.629211,746.924316 
	C434.593597,758.400635 417.046112,767.249634 398.773651,774.709961 
	C371.322418,785.917725 342.739868,792.392273 313.300110,794.846924 
	C302.038788,795.785767 290.616455,795.390015 279.299042,794.889526 
	C268.191406,794.398315 256.969666,793.831726 246.074707,791.808350 
	C229.622940,788.753052 213.112457,785.358948 197.172104,780.367676 
	C176.436829,773.875122 156.536728,764.873047 138.322662,752.892029 
	C124.676788,743.916016 111.419945,734.232727 98.748642,723.930969 
	C90.101044,716.900574 82.478462,708.520508 74.917755,700.267456 
	C67.639282,692.322388 60.392834,684.208374 54.248608,675.390747 
	C37.811962,651.802551 24.277058,626.669434 15.482500,599.105103 
	C10.420526,583.239746 6.065729,567.274231 3.914924,550.725647 
	C3.484435,547.413391 1.999013,544.238342 1.000005,541.000000 
	C1.000000,540.555542 1.000000,540.111084 1.365179,539.216492 
	C1.486905,537.177551 1.243452,535.588806 1.000000,534.000000 
	C1.000000,516.645752 1.000000,499.291534 1.365175,481.351837 
	C1.486900,479.177582 1.243449,477.588776 1.000000,476.000000 
	C1.000000,475.555542 1.000000,475.111115 1.385741,474.211365 
	C2.178325,473.075623 2.831980,472.436768 2.954835,471.708405 
	C4.678823,461.487366 5.809424,451.136108 8.095504,441.045563 
	C15.525151,408.251801 28.745651,377.790619 47.003479,349.621399 
	C61.022285,327.992401 77.148788,307.982758 97.138725,291.505341 
	C109.534164,281.287964 122.236588,271.385223 135.345047,262.109833 
	C145.024063,255.261093 155.581375,249.653610 165.960266,243.364105 
	C112.949135,190.823303 59.915096,138.259781 6.832935,85.648567 
	C15.518090,76.969742 23.884302,68.610870 32.249058,60.250553 
	C39.435753,53.067673 46.593479,45.855556 53.812588,38.705410 
	C66.522194,26.117222 79.268852,13.566443 92.000000,1.000000 
	C92.750000,1.000000 93.500000,1.000000 94.625000,1.000002 
z"/>
<path fill="#FFFFFF" opacity="1.000000" stroke="none" 
	d="
M1.000005,541.468628 
	C1.999013,544.238342 3.484435,547.413391 3.914924,550.725647 
	C6.065729,567.274231 10.420526,583.239746 15.482500,599.105103 
	C24.277058,626.669434 37.811962,651.802551 54.248608,675.390747 
	C60.392834,684.208374 67.639282,692.322388 74.917755,700.267456 
	C82.478462,708.520508 90.101044,716.900574 98.748642,723.930969 
	C111.419945,734.232727 124.676788,743.916016 138.322662,752.892029 
	C156.536728,764.873047 176.436829,773.875122 197.172104,780.367676 
	C213.112457,785.358948 229.622940,788.753052 246.074707,791.808350 
	C256.969666,793.831726 268.191406,794.398315 279.299042,794.889526 
	C290.616455,795.390015 302.038788,795.785767 313.300110,794.846924 
	C342.739868,792.392273 371.322418,785.917725 398.773651,774.709961 
	C417.046112,767.249634 434.593597,758.400635 450.629211,746.924316 
	C461.859833,738.886963 472.596161,730.114807 483.177460,721.223572 
	C504.397064,703.393250 521.264038,681.728149 535.901062,658.419800 
	C552.958435,631.257141 565.595947,602.114929 572.023132,570.497437 
	C573.332031,564.058472 574.825745,557.657166 576.617126,551.119263 
	C577.000000,684.895996 577.000000,818.792053 577.000000,953.000000 
	C523.312866,953.000000 469.625092,953.000000 415.468658,952.531372 
	C415.000000,912.157227 415.000000,872.251709 415.000000,832.328857 
	C331.408875,832.328857 248.280273,832.328857 165.000000,832.328857 
	C165.000000,872.771667 165.000000,912.885803 165.000000,953.000000 
	C110.374878,953.000000 55.749748,953.000000 1.000000,953.000000 
	C1.000000,815.979126 1.000000,678.958252 1.000005,541.468628 
z"/>
<path fill="#0C1618" opacity="1.000000" stroke="none" 
	d="
M165.468658,953.000000 
	C165.000000,912.885803 165.000000,872.771667 165.000000,832.328857 
	C248.280273,832.328857 331.408875,832.328857 415.000000,832.328857 
	C415.000000,872.251709 415.000000,912.157227 415.000000,952.531372 
	C331.979095,953.000000 248.958206,953.000000 165.468658,953.000000 
z"/>
<path fill="#FFFFFF" opacity="1.000000" stroke="none" 
	d="
M91.531342,1.000000 
	C79.268852,13.566443 66.522194,26.117222 53.812588,38.705410 
	C46.593479,45.855556 39.435753,53.067673 32.249058,60.250553 
	C23.884302,68.610870 15.518090,76.969742 6.832935,85.648567 
	C59.915096,138.259781 112.949135,190.823303 165.960266,243.364105 
	C155.581375,249.653610 145.024063,255.261093 135.345047,262.109833 
	C122.236588,271.385223 109.534164,281.287964 97.138725,291.505341 
	C77.148788,307.982758 61.022285,327.992401 47.003479,349.621399 
	C28.745651,377.790619 15.525151,408.251801 8.095504,441.045563 
	C5.809424,451.136108 4.678823,461.487366 2.954835,471.708405 
	C2.831980,472.436768 2.178325,473.075623 1.385741,473.878052 
	C1.000000,316.455719 1.000000,158.911423 1.000000,1.000000 
	C31.019897,1.000000 61.041290,1.000000 91.531342,1.000000 
z"/>
<path fill="#FFFFFF" opacity="1.000000" stroke="none" 
	d="
M1.000000,476.416656 
	C1.243449,477.588776 1.486900,479.177582 1.365175,480.883179 
	C1.000000,479.611115 1.000000,478.222198 1.000000,476.416656 
z"/>
<path fill="#FFFFFF" opacity="1.000000" stroke="none" 
	d="
M1.000000,534.416626 
	C1.243452,535.588806 1.486905,537.177551 1.365179,538.883179 
	C1.000000,537.611084 1.000000,536.222229 1.000000,534.416626 
z"/>
<path fill="#FFFFFF" opacity="1.000000" stroke="none" 
	d="
M577.000000,548.583374 
	C576.756531,547.411194 576.513062,545.822449 576.634827,544.116821 
	C577.000000,545.388916 577.000000,546.777771 577.000000,548.583374 
z"/>
</svg>